<?xml version="1.0" encoding="UTF-8"?>
<svg width="275px" height="275px" viewBox="0 0 275 275" version="1.1" xmlns="http://www.w3.org/2000/svg" xmlns:xlink="http://www.w3.org/1999/xlink">
    <title>logo</title>
    <g id="Page-1" stroke="none" stroke-width="1" fill="none" fill-rule="evenodd">
        <path d="M2.05,274.304301 L8.8,274.304301 C9.85,274.304301 10.3,272.763824 9.45,272.16751 C9.15,271.968739 8.85,271.769967 8.6,271.620889 C7.8,271.123961 7.25,270.279183 7.3,269.434405 L8.1,246.675099 L18.1,272.912902 C18.45,273.75768 19.25,274.304301 20.15,274.304301 L22.5,274.304301 C23.4,274.304301 24.15,273.75768 24.5,272.912902 L33.85,246.824178 L35,269.434405 C34.95,270.328876 34.45,271.173654 33.6,271.571196 C33.25,271.769967 32.9,271.968739 32.6,272.16751 C31.8,272.763824 32.25,274.304301 33.25,274.304301 L48.7,274.304301 C49.75,274.304301 50.25,272.763824 49.4,272.16751 C49.1,271.968739 48.8,271.769967 48.5,271.620889 C47.75,271.123961 47.25,270.279183 47.25,269.434405 L45.95,242.997832 C46,242.202747 46.5,241.407662 47.2,240.960426 C47.5,240.811348 47.8,240.612577 48.1,240.413806 C48.95,239.817492 48.45,238.277015 47.4,238.277015 L35.3,238.277015 C34.4,238.277015 33.6,238.823636 33.25,239.668413 L26.05,259.098301 L18.15,239.668413 C17.8,238.823636 17,238.277015 16.1,238.277015 L3.05,238.277015 C2.05,238.277015 1.6,239.817492 2.45,240.413806 C2.7,240.612577 3.05,240.811348 3.45,241.010119 C4.15,241.357969 4.65,242.003975 4.75,242.749368 L3.8,269.434405 C3.8,270.328876 3.25,271.173654 2.45,271.571196 C2.05,271.769967 1.7,271.968739 1.45,272.16751 C0.6,272.763824 1.05,274.304301 2.05,274.304301 Z M52.55,256.315504 C52.55,267.645464 59.4,274.950307 72.15,274.950307 C84.9,274.950307 91.85,267.645464 91.8002679,256.315504 C91.8002679,244.985544 84.9,237.631008 72.15,237.631008 C59.4,237.631008 52.55,244.985544 52.55,256.315504 Z M70.3,240.711962 C75.6,240.065956 78.1,246.277557 79.25,255.470726 C80.35,264.614203 79.45,271.223347 74.1,271.869353 C68.8,272.51536 66.2,266.353451 65.1,257.160282 C63.95,247.967112 65,241.357969 70.3,240.711962 Z M94.5,240.413806 C94.85,240.612577 95.2,240.811348 95.55,241.010119 C96.35,241.457355 97.1,242.252439 97.4,243.047524 L109.75,272.912902 C110.1,273.75768 110.95,274.304301 111.85,274.304301 L118.05,274.304301 C118.95,274.304301 119.8,273.75768 120.15,272.912902 L132.55,243.047524 C132.9,242.302132 133.6,241.606433 134.5,241.159198 C135,240.910734 135.35,240.66227 135.75,240.413806 C136.6,239.817492 136.15,238.277015 135.1,238.277015 L128.35,238.277015 C127.35,238.277015 126.9,239.817492 127.75,240.413806 C127.85,240.513191 128,240.612577 128.15,240.711962 C128.85,241.159198 129.1,242.153054 128.75,243.047524 L119.75,265.309902 L111.35,243.246296 C111.05,242.451211 111.3,241.606433 112.05,240.960426 C112.3,240.761655 112.5,240.562884 112.75,240.413806 C113.6,239.817492 113.15,238.277015 112.15,238.277015 L95.15,238.277015 C94.1,238.277015 93.65,239.817492 94.5,240.413806 Z M140.25,274.304301 L155.75,274.304301 C156.8,274.304301 157.25,272.763824 156.4,272.16751 C156.1,271.968739 155.8,271.769967 155.55,271.620889 C154.75,271.123961 154.25,270.279183 154.25,269.434405 L154.25,243.643838 L154.25,243.14691 C154.25,242.302132 154.75,241.457355 155.55,240.960426 C155.8,240.811348 156.1,240.612577 156.4,240.413806 C157.25,239.817492 156.8,238.277015 155.75,238.277015 L140.25,238.277015 C139.25,238.277015 138.8,239.817492 139.65,240.413806 C139.9,240.612577 140.25,240.811348 140.65,241.010119 C141.45,241.407662 142,242.252439 142,243.14691 L142,269.434405 C142,270.328876 141.45,271.173654 140.65,271.571196 C140.25,271.769967 139.9,271.968739 139.65,272.16751 C138.8,272.763824 139.25,274.304301 140.25,274.304301 Z M161.3,240.513191 C161.55,240.711962 161.9,240.910734 162.3,241.109505 C163.1,241.507047 163.65,242.351825 163.65,243.246296 L163.65,269.434405 C163.65,270.328876 163.1,271.173654 162.3,271.571196 C161.9,271.769967 161.55,271.968739 161.3,272.16751 C160.45,272.763824 160.9,274.304301 161.9,274.304301 L191.65,274.304301 C192.55,274.304301 193.3,273.707987 193.5,272.863209 C193.85,271.521503 194.35,269.484098 194.6,267.695157 C194.85,266.353451 194.1,265.608059 193.15,265.608059 C192.45,265.608059 191.7,266.005602 191.15,266.850379 C189.8,268.887785 189.05,271.322732 183.85,271.322732 L177.4,271.322732 C176.5,271.322732 175.9,270.726419 175.9,269.831948 L175.9,257.110589 L179.5,257.110589 C186,257.110589 183.8,261.086014 186.05,261.284785 C188.65,261.533249 188.95,249.706361 186.3,249.805746 C183.9,249.905132 186,254.178713 179.5,254.178713 L175.9,254.178713 L175.9,243.743224 L175.9,242.848753 C175.9,241.954283 176.5,241.357969 177.4,241.357969 L182.85,241.357969 C188.05,241.357969 188.8,243.842609 190.15,245.880014 C190.7,246.675099 191.45,247.072642 192.1,247.072642 C193.05,247.072642 193.8,246.376943 193.6,244.985544 C193.3,243.196603 192.85,241.20889 192.5,239.867185 C192.3,238.972714 191.5,238.3764 190.6,238.3764 L161.9,238.3764 C160.9,238.3764 160.45,239.916877 161.3,240.513191 Z M198.65,265.558366 C198.95,271.123961 206.4,275 217.05,275 C226.95,275 233.95,271.024575 234.3,264.117275 C234.95,251.843151 208.7,250.302674 208.25,243.693531 C208.05,241.357969 211,239.618721 215,240.165342 C221.2,241.010119 220.95,247.619263 226.15,249.756053 C226.9,250.05421 227.65,250.203289 228.35,250.203289 C230.8,250.203289 232.85,248.513733 232.05,245.383086 C231.1,241.705819 224.9,237.631008 215.1,237.631008 C205.9,237.581316 199.15,241.457355 199.15,248.364655 C199.15,260.787857 225.4,262.179256 224.2,269.384713 C223.8,271.769967 221.2,272.962595 217.75,272.565052 C208.4,271.571196 209.85,261.582942 203,261.284785 C200.35,261.135707 198.5,263.073726 198.65,265.558366 Z M1.7,189.727141 C2.05,189.925913 2.4,190.124684 2.75,190.323455 C3.5,190.720997 4.2,191.416697 4.6,192.162089 L16.55,222.226238 C16.9,223.071016 17.75,223.617636 18.65,223.617636 L24.85,223.617636 C25.75,223.617636 26.55,223.071016 26.9,222.226238 L34,204.436213 L40.6,222.176545 C40.9,223.071016 41.75,223.617636 42.65,223.617636 L48.85,223.617636 C49.75,223.617636 50.55,223.071016 50.9,222.226238 L62.85,192.410553 C63.15,191.615468 63.85,190.919769 64.75,190.472533 C65.25,190.224069 65.65,189.975605 66.05,189.727141 C66.9,189.130828 66.45,187.590351 65.4,187.590351 L58.65,187.590351 C57.65,187.590351 57.2,189.130828 58.05,189.727141 C58.2,189.826527 58.35,189.925913 58.5,190.025298 C59.25,190.472533 59.5,191.46639 59.2,192.36086 L50.6,214.325081 L43.3,192.36086 C43.15,191.615468 43.45,190.870076 44.15,190.323455 C44.45,190.124684 44.7,189.87622 44.95,189.727141 C45.8,189.130828 45.35,187.590351 44.35,187.590351 L27.35,187.590351 C26.3,187.590351 25.85,189.130828 26.7,189.727141 C27.05,189.925913 27.4,190.124684 27.75,190.323455 C28.55,190.77069 29.25,191.565775 29.55,192.36086 L32.3,199.765089 L26.55,214.47416 L18.5,192.559631 C18.25,191.764546 18.5,190.919769 19.25,190.273762 C19.5,190.074991 19.7,189.87622 19.95,189.727141 C20.8,189.130828 20.35,187.590351 19.3,187.590351 L2.35,187.590351 C1.3,187.590351 0.85,189.130828 1.7,189.727141 Z M93.3,223.617636 L108.8,223.617636 C109.85,223.617636 110.3,222.077159 109.45,221.480846 C109.15,221.282074 108.85,221.083303 108.6,220.934225 C107.8,220.437297 107.3,219.592519 107.3,218.747741 L107.3,192.957174 L107.3,192.460246 C107.3,191.615468 107.8,190.77069 108.6,190.273762 C108.85,190.124684 109.15,189.925913 109.45,189.727141 C110.3,189.130828 109.85,187.590351 108.8,187.590351 L93.3,187.590351 C92.3,187.590351 91.85,189.130828 92.7,189.727141 C92.95,189.925913 93.3,190.124684 93.7,190.323455 C94.5,190.720997 95.05,191.565775 95.05,192.460246 L95.05,218.747741 C95.05,219.642212 94.5,220.48699 93.7,220.884532 C93.3,221.083303 92.95,221.282074 92.7,221.480846 C91.85,222.077159 92.3,223.617636 93.3,223.617636 Z M136.35,189.727141 C136.6,189.925913 136.95,190.124684 137.35,190.323455 C138.15,190.720997 138.7,191.565775 138.7,192.460246 L138.7,218.747741 C138.7,219.642212 138.15,220.48699 137.35,220.884532 C136.95,221.083303 136.6,221.282074 136.35,221.480846 C135.5,222.077159 135.95,223.617636 136.95,223.617636 L165.2,223.617636 C166.1,223.617636 166.85,223.021323 167.05,222.176545 C167.4,220.834839 167.9,218.797434 168.15,217.008493 C168.4,215.666787 167.65,214.921395 166.7,214.921395 C166,214.921395 165.25,215.318937 164.7,216.163715 C163.35,218.20112 162.6,220.636068 157.4,220.636068 L152.45,220.636068 C151.55,220.636068 150.95,220.039754 150.95,219.145284 L150.95,192.957174 L150.95,192.460246 C150.95,191.615468 151.45,190.77069 152.25,190.273762 C152.5,190.124684 152.8,189.925913 153.1,189.727141 C153.95,189.130828 153.5,187.590351 152.45,187.590351 L136.95,187.590351 C135.95,187.590351 135.5,189.130828 136.35,189.727141 Z M193.9,189.87622 C194.15,190.025298 194.5,190.224069 194.9,190.422841 C195.7,190.870076 196.25,191.714854 196.25,192.609324 L196.25,218.747741 C196.25,219.642212 195.7,220.48699 194.9,220.884532 C194.5,221.083303 194.15,221.282074 193.9,221.480846 C193.05,222.077159 193.5,223.617636 194.5,223.617636 L210.55,223.617636 C224.45,223.617636 233.1,217.704192 233.1,205.678533 C233.1,193.652873 224.35,187.640043 210.55,187.689431 L194.5,187.739429 C193.5,187.739429 193.05,189.279906 193.9,189.87622 Z M208.5,219.145284 L208.5,192.211782 C208.5,191.317311 209.1,190.671305 210,190.671305 C217.5,190.720997 220.85,195.5412 220.85,205.728226 C220.85,215.915251 217.4,220.636068 210,220.636068 C209.1,220.636068 208.5,220.039754 208.5,219.145284 Z M109.109623,4.49145314 L101.086431,18.3215421 C100.557721,19.2329119 100.833187,20.3867308 101.693715,20.9691727 L101.820604,21.0484039 L118.322788,30.5303606 C119.282146,31.0815964 120.508873,30.7544685 121.062759,29.7997001 L129.085951,15.9696112 L136.034239,19.962014 L46.2893208,174.661067 L37.0313563,174.650001 L40.3293897,168.96497 C40.8580989,168.053601 40.5826334,166.899782 39.7221056,166.31734 L39.5952167,166.238109 L23.0930325,156.756152 C22.1336741,156.204916 20.9069473,156.532044 20.3530615,157.486812 L10.8255211,173.910043 C10.6948332,174.135318 10.6132799,174.375406 10.577552,174.618017 L0,174.604873 L101.292799,0 L109.109623,4.49145314 Z M171.796695,144.236358 C175.587314,146.414403 176.924357,151.21414 174.801678,155.023702 L164.03281,174.350546 L68.7432818,174.918684 L103.414046,114.225864 C105.604187,110.392306 110.502245,109.05136 114.354411,111.230713 L171.796695,144.236358 Z M57.6473986,135.120408 L41.1452144,125.638452 C40.1858561,125.087216 38.9591292,125.414344 38.4052434,126.369112 L28.877703,142.792343 C28.3238171,143.747111 28.6525176,144.967969 29.611876,145.519205 L46.1140601,155.001161 C47.0734185,155.552397 48.3001453,155.225269 48.8540311,154.270501 L58.3815716,137.84727 C58.9354574,136.892502 58.606757,135.671644 57.6473986,135.120408 Z M75.6995805,104.002708 L59.1973963,94.5207516 C58.238038,93.9695158 57.0113112,94.2966436 56.4574253,95.251412 L46.9298849,111.674643 C46.3759991,112.629411 46.7046995,113.850269 47.6640579,114.401504 L64.166242,123.883461 C65.1256004,124.434697 66.3523272,124.107569 66.9062131,123.152801 L76.4337535,106.72957 C76.9876393,105.774802 76.6589389,104.553944 75.6995805,104.002708 Z M248.075384,84.339509 L240.052192,98.169598 C239.523483,99.0809678 239.798948,100.234787 240.659476,100.817229 L240.786365,100.89646 L257.288549,110.378416 C258.247907,110.929652 259.474634,110.602524 260.02852,109.647756 L268.051712,95.8176671 L275,99.8100698 L231.446496,174.886029 L198.994346,174.846399 L198.163158,174.368807 C197.295588,173.870312 196.209364,174.090143 195.599823,174.842876 L185.157283,174.829649 L240.25856,79.8480559 L248.075384,84.339509 Z M93.7517624,72.885008 L77.2495783,63.4030514 C76.2902199,62.8518156 75.0634931,63.1789434 74.5096073,64.1337118 L64.9820668,80.5569425 C64.428181,81.5117109 64.7568814,82.7325685 65.7162398,83.2838043 L82.218424,92.7657609 C83.1777823,93.3169967 84.4045091,92.9898689 84.958395,92.0351005 L94.4859354,75.6118698 C95.0398212,74.6571014 94.7111208,73.4362438 93.7517624,72.885008 Z M232.717524,152.733064 L216.215339,143.251107 C215.255981,142.699871 214.029254,143.026999 213.475368,143.981768 L203.947828,160.404998 C203.393942,161.359767 203.722643,162.580624 204.682001,163.13186 L221.184185,172.613817 C222.143544,173.165053 223.37027,172.837925 223.924156,171.883156 L233.451697,155.459926 C234.005582,154.505157 233.676882,153.2843 232.717524,152.733064 Z M223.610585,70.28233 L193.160792,123.066767 C190.996196,126.819022 186.23496,128.160851 182.426689,126.136456 L182.191148,126.006231 L124.867813,93.0689315 C121.036979,90.8677803 119.718975,85.9961676 121.921382,82.1783183 L152.390633,29.3602013 L223.610585,70.28233 Z M111.803944,41.7673079 L95.3017602,32.2853512 C94.3424018,31.7341154 93.115675,32.0612432 92.5617892,33.0160116 L83.0342487,49.4392423 C82.4803629,50.3940107 82.8090634,51.6148683 83.7684217,52.1661041 L100.270606,61.6480607 C101.229964,62.1992965 102.456691,61.8721687 103.010577,60.9174003 L112.538117,44.4941697 C113.092003,43.5394013 112.763303,42.3185436 111.803944,41.7673079 Z M250.769705,121.615364 L234.267521,112.133407 C233.308163,111.582171 232.081436,111.909299 231.52755,112.864068 L222.00001,129.287298 C221.446124,130.242067 221.774825,131.462924 222.734183,132.01416 L239.236367,141.496117 C240.195725,142.047352 241.422452,141.720225 241.976338,140.765456 L251.503879,124.342226 C252.057764,123.387457 251.729064,122.1666 250.769705,121.615364 Z" id="logo" fill="#EAEAEA" fill-rule="nonzero"></path>
    </g>
</svg>